<?xml version="1.0" standalone="no"?><!DOCTYPE svg PUBLIC "-//W3C//DTD SVG 1.1//EN" "http://www.w3.org/Graphics/SVG/1.1/DTD/svg11.dtd"><svg class="icon" width="256px" height="256.00px" viewBox="0 0 1024 1024" version="1.1" xmlns="http://www.w3.org/2000/svg"><path d="M106.666667 106.666667a42.666667 42.666667 0 0 1 42.666666-42.666667h554.666667a213.333333 213.333333 0 0 1 213.333333 213.333333v640a42.666667 42.666667 0 0 1-42.666666 42.666667H325.76a223.573333 223.573333 0 0 1-154.88-61.738667A206.890667 206.890667 0 0 1 106.666667 749.184V106.666667z" fill="#3370FF" /><path d="M106.666667 298.666667H554.666667a149.333333 149.333333 0 0 1 149.333333 149.333333v512h-384a213.333333 213.333333 0 0 1-213.333333-213.333333V298.666667z" fill="#14C0FF" /><path d="M106.666667 533.333333h298.666666a85.333333 85.333333 0 0 1 85.333334 85.333334v341.333333h-170.666667a213.333333 213.333333 0 0 1-213.333333-213.333333v-213.333334z" fill="#93E55E" /></svg>