<?xml version="1.0" standalone="no"?><!DOCTYPE svg PUBLIC "-//W3C//DTD SVG 1.1//EN" "http://www.w3.org/Graphics/SVG/1.1/DTD/svg11.dtd"><svg class="icon" width="256px" height="41.12px" viewBox="0 0 6375 1024" version="1.1" xmlns="http://www.w3.org/2000/svg"><path d="M6373.813757 456.551361c-63.738138-17.11487-85.771074 20.852601-104.459726 72.78738-57.443013 159.345344-118.033588 317.510352-177.050382 476.068805h-184.32912c-32.065791-81.836621-63.93486-163.083074-100.32855-255.739441-52.918392 65.705364-72.393934 137.705853-94.033425 204.788275-27.344448 84.197293-89.508804 44.262596-137.705853 52.328224-44.852763 7.475461-76.52511 0-93.836702-56.656122-39.344529-124.722158-86.164519-246.886922-134.951736-368.068072-19.672265-48.787216-24.393608-104.656448-85.771074-135.541904-39.344529-19.672265-12.590249-76.52511-15.737812-122.558209h363.346729c-3.147562 57.049568 33.836295 125.312326-68.852927 146.36165 35.803522 107.213843 69.443094 208.329283 109.96796 329.31371 30.49201-74.557883 50.754443-130.82056 76.328387-184.525842a108.000733 108.000733 0 0 0-26.164112-134.164845c-61.574188-44.262596-51.738056-95.607206-46.81999-157.378118h341.11707c10.032855 115.672916 10.032855 115.672916-65.508642 144.000978 12.393527 93.443257 60.590575 175.083156 103.27939 265.182127l87.935023-259.280448c-85.180906-17.705038-74.164438-79.672672-65.115196-154.820723h319.280856z" fill="#93B874" /><path d="M0 318.648786h368.264795c0 57.24629 37.574026 109.96796-34.819909 141.443583-21.639491 9.442687-20.852601 32.655959-14.754198 51.541333 27.934616 85.771074 57.049568 171.148703 88.525191 264.59196 112.131909-171.148703 130.03367-240.985242 30.885455-325.772703-31.082178-26.557557-26.360835-32.065791-13.180417-125.115603h332.657996c19.672265 68.459481 23.606718 127.279552-69.83654 146.951817 31.869069 89.115359 60.984021 170.558535 96.984265 270.887085 50.360998-78.689059 59.016794-153.640387 86.95141-220.526087 30.098565-72.590657-109.771237-106.426952-25.770667-195.148866h268.526413c10.819746 56.656122 15.737812 98.361323-42.885537 148.328876-48.787216 42.098646-61.967634 126.689385-88.131746 193.575084-30.885456 78.689059-63.541415 157.378117-86.361242 239.804907-20.852601 74.36116-55.869232 107.213843-137.705852 100.721995-59.016794-4.721344-97.180988-12.786972-113.902413-77.705446-14.950921-59.016794-43.86915-114.49258-72.197211-185.509456-48.393771 64.525028-65.508641 130.623837-86.361242 192.591472s-65.705364 69.83654-122.361486 69.246371-98.361323-2.754117-119.017202-70.62343c-42.295369-133.968122-95.213761-264.59196-145.378036-396.002688-17.311593-45.442931-32.459237-96.984265-99.935104-85.377629z" fill="#434D44" /><path d="M3239.628548 1003.243597v-122.164764c108.984346 5.704957 120.787705-60.19713 118.033588-149.509211-5.901679-143.804255-3.73773-288.198678 0-432.789823 1.573781-78.689059-6.491847-141.24686-113.902413-122.164764V49.335482h466.035951a254.362382 254.362382 0 0 1 1.967226 114.099136c-125.902494 30.688733-134.951736 53.705283-103.476112 264.59196h332.461273c7.868906-81.836621 13.967308-158.755176-4.131176-232.526169-30.688733-28.524784-67.279145-9.836132-98.361323-24.590331-17.705038-36.196967-7.868906-75.344774-7.475461-120.984428h468.396622c13.770585 36.787135 6.885293 74.754606 2.754117 120.39426-112.722077-10.819746-118.033588 58.033181-115.279471 146.558372 5.901679 147.14854 4.721344 295.08397 0 442.035787-2.360672 78.689059 10.623023 131.607451 105.443339 114.689304 22.819827 42.885537 13.967308 83.607125 8.655797 129.050056h-463.872002c-18.491929-36.39369-7.672183-75.148051-7.082015-113.115522 126.492662-39.344529 141.24686-83.21368 105.049894-306.887329h-338.16623c0 61.967634 2.95084 120.197537 0 178.033995-4.721344 76.721832 4.131176 137.705853 104.459725 108.984347 22.623104 47.410158 13.180417 88.131746 11.409914 133.181232z" fill="#93B874" /><path d="M2024.669481 612.749143l160.722402-137.705853c-77.508723-27.344448-98.361323-75.541496-68.066035-143.804255 23.409995-17.705038 50.55772-11.213191 76.131664-11.409913h327.543207c24.393608 43.672428 15.541089 78.689059 13.37714 121.771318-78.689059 18.295206-142.230474 68.459481-209.903064 112.722077-46.623267 30.49201-59.016794 65.705364-18.491929 102.689221 78.689059 73.770993 112.918799 192.788194 238.231125 222.296591 54.098728 12.786972 22.819827 72.393934 32.852682 120.590983h-424.527472c-11.016468-60.787298-28.328061-119.017201 47.803604-142.623919-9.049242-45.049486-35.803522-69.83654-59.016794-98.361324-36.983858-45.049486-70.229985-24.787053-96.984265 8.655797s-39.344529 78.689059 8.065628 98.361323c72.984102 30.098565 47.606881 79.869395 44.852764 135.148459H1700.077114c-7.082015-62.754524-30.885456-122.558209 64.131583-133.968123 48.197048-5.901679 41.508478-51.934779 41.705201-87.344855v-481.970485c0-103.27939 0-103.27939-103.476112-127.082829-26.557557-78.689059-6.885293-122.754932 84.394015-130.03367 48.000326-3.73773 94.820316-24.000163 142.427196-35.410076 63.541415-15.147644 98.361323 0 95.803929 76.525109-3.344285 166.624082-0.393445 333.248164-0.393445 530.954424z" fill="#434D44" /><path d="M4397.734769 672.946273c-4.721344-218.165415 148.919044-367.674627 380.658322-370.428744 225.640876-2.754117 387.93706 142.623919 392.068235 351.346647 4.327898 213.050626-146.558372 362.363115-373.773029 369.838576-233.116336 7.672183-394.035462-133.7714-398.953528-350.756479z m241.772133 8.852519a352.133538 352.133538 0 0 0 3.737731 44.065873c13.180417 75.934942 41.311756 143.214087 130.82056 145.771481s130.623837-57.443013 147.345262-140.263247a336.199003 336.199003 0 0 0-15.934534-192.001303 120.984428 120.984428 0 0 0-118.033588-85.771074 129.443502 129.443502 0 0 0-124.328713 79.672672c-21.442769 42.295369-24.393608 87.935023-23.606718 148.525598z" fill="#93B874" /><path d="M1496.665897 288.746944v485.314769c0 47.016713 0 86.557965 63.541415 100.918718s25.967389 74.164438 35.213354 123.738545H1191.745794c-23.01655-34.426463-9.049242-72.984102-10.623023-116.853252 90.68914 0 104.656448-53.311837 98.361324-128.263166-5.901679-80.656285-1.180336-162.099461-1.180336-248.067258l-88.918636-16.721425a165.247023 165.247023 0 0 1 1.180336-124.13199c99.148214-2.360672 192.984917-38.557639 306.100438-75.934941zM2734.641513 504.74841l-82.820234-14.754199c-31.672346-32.459237-16.524702-127.672998 17.901761-128.066443 92.853089 0 174.886433-47.016713 282.690443-64.721751 0 148.525598-1.573781 287.215064 0 425.707808 1.180336 62.754524-27.737893 137.705853 78.689059 159.345344 39.344529 7.868906 19.672265 72.984102 11.016468 119.213924h-390.887899c-27.541171-35.016631-15.147644-73.770993-11.409913-118.033588 81.443176-3.73773 103.672835-49.77083 96.394096-127.869721s-1.573781-162.296184-1.573781-250.821374zM1258.041326 118.778577c7.475461-64.131583 47.410158-109.181069 124.328713-113.70569 60.393853-3.73773 127.86972 63.738138 129.050056 123.935267s-68.459481 128.066443-127.672997 127.08283a134.951736 134.951736 0 0 1-125.705772-137.312407zM2713.59219 123.696643c4.918066-64.918473 43.278982-113.902413 120.000815-118.033588s118.033588 49.180662 131.804173 118.033588c10.623023 57.639736-60.590575 129.246779-121.377873 131.214005s-128.263166-56.852845-130.427115-131.214005z" fill="#434D44" /></svg>